<svg width="48" height="48" viewBox="0 0 48 48" xmlns="http://www.w3.org/2000/svg"><title>Arrow_1</title><defs><linearGradient x1="50%" y1="0%" x2="50%" y2="100%" id="b"><stop stop-opacity="0" offset="0%"/><stop offset="100%"/></linearGradient><filter x="-50%" y="-50%" width="200%" height="200%" filterUnits="objectBoundingBox" id="a"><feGaussianBlur stdDeviation="2.073" in="SourceGraphic" result="blur"/></filter></defs><g fill="none" fill-rule="evenodd"><path d="M24.992 22l-4.32-5.958h-6.73c-4.247 0-8.766-2.164-10.09-4.824L.674 4.824C-.65 2.16 2.656 0 8.07 0h25.043c5.41 0 9.578 2.163 9.31 4.824l-.642 6.394c-.268 2.664-3.925 4.824-8.175 4.824h-6.65L24.992 22z" transform="translate(2 21)" filter="url(#a)" fill-opacity=".75" fill="url(#b)"/><path d="M27.632 33.167L24.046 44 20.46 33.167h-7.458A9 9 0 0 1 4 24.157V13.01C4 8.033 8.037 4 13.002 4h21.996A9 9 0 0 1 44 13.009v11.149c0 4.975-4.037 9.009-9.002 9.009h-7.366z" stroke-width=".5" stroke="#FFF" fill="#B5AB92"/><path d="M24.799 26.184l-1.476-6.17-6.116-1.53 12.082-4.435-4.49 12.135zM24 9c-5.523 0-10 4.477-10 10s4.477 10 10 10 10-4.477 10-10S29.523 9 24 9z" fill="#FFF"/></g></svg>